# xmcd
#
# Track frame offsets: 
#        150
#        18625
#        37112
#        56500
#
# Disc length: 982 seconds
#
# Revision: 4
# Processed by: cddbd v1.5.2PL0 Copyright (c) Steve Scherf et al.
# Submitted via: ExactAudioCopyFreeDBPlugin 1.0
#
DISCID=3003d404
DTITLE=Hothouse Flowers - One Tongue (2CD) - CD1
DYEAR=1993
DGENRE=Rock
TTITLE0=One Tongue
TTITLE1=Carry On
TTITLE2=Thank You For Believing
TTITLE3=The Rebel
EXTD=
EXTT0=
EXTT1=
EXTT2=
EXTT3=
PLAYORDER=
